<svg width="100%" height="110" viewBox="-20 0 740 110" xmlns="http://www.w3.org/2000/svg">
<style>
      /* Light Mode Styles */
      .bit-idx { font-family: sans-serif; font-size: 13px; fill: #666; }
      .content-fixed { font-family: monospace; font-size: 16px; font-weight: bold; text-anchor: middle; fill: #111; }
      .content-var { font-family: sans-serif; font-size: 16px; text-anchor: middle; fill: #111; }
      .field-type { font-family: monospace; font-size: 13px; text-anchor: middle; fill: #555; }
      
      .box-line { stroke: #222; stroke-width: 1.5; fill: #fafafa; }
      /* Second row background (slightly shaded) */
      .box-type { stroke: #222; stroke-width: 1.5; fill: #eaecef; } 
      
      /* Dark Mode Overrides */
      @media (prefers-color-scheme: dark) {
        .bit-idx { fill: #a0a0a0; }
        .content-fixed { fill: #e0e0e0; }
        .content-var { fill: #e0e0e0; }
        .field-type { fill: #a0a0a0; }
        
        .box-line { stroke: #a0a0a0; fill: #1e1e1e; }
        .box-type { stroke: #a0a0a0; fill: #2d3136; }
      }
    </style>
  <rect x="0" y="65" width="700" height="24" class="box-type" />
  <rect x="612.5" y="25" width="87.5" height="40" class="box-line" />
  <text x="616.5" y="15" text-anchor="start" class="bit-idx">3</text>
  <text x="696" y="15" text-anchor="end" class="bit-idx">0</text>
  <text x="623.4375" y="50" class="content-fixed">0</text>
  <text x="645.3125" y="50" class="content-fixed">0</text>
  <text x="667.1875" y="50" class="content-fixed">1</text>
  <text x="689.0625" y="50" class="content-fixed">1</text>
  <rect x="590.625" y="25" width="21.875" height="40" class="box-line" />
  <text x="601.5625" y="15" text-anchor="middle" class="bit-idx">4</text>
  <text x="601.5625" y="50" class="content-fixed">0</text>
  <rect x="568.75" y="25" width="21.875" height="40" class="box-line" />
  <text x="579.6875" y="15" text-anchor="middle" class="bit-idx">5</text>
  <text x="579.6875" y="50" class="content-fixed">w</text>
  <rect x="525" y="25" width="43.75" height="40" class="box-line" />
  <text x="529" y="15" text-anchor="start" class="bit-idx">7</text>
  <text x="564.75" y="15" text-anchor="end" class="bit-idx">6</text>
  <text x="535.9375" y="50" class="content-fixed">1</text>
  <text x="557.8125" y="50" class="content-fixed">0</text>
  <rect x="481.25" y="25" width="43.75" height="40" class="box-line" />
  <text x="485.25" y="15" text-anchor="start" class="bit-idx">9</text>
  <text x="521" y="15" text-anchor="end" class="bit-idx">8</text>
  <text x="503.125" y="50" class="content-var">sz</text>
  <rect x="371.875" y="25" width="109.375" height="40" class="box-line" />
  <text x="375.875" y="15" text-anchor="start" class="bit-idx">14</text>
  <text x="477.25" y="15" text-anchor="end" class="bit-idx">10</text>
  <text x="426.5625" y="50" class="content-var">dst</text>
  <rect x="371.875" y="65" width="109.375" height="24" class="box-type" />
  <text x="426.5625" y="81" class="field-type">gpr</text>
  <rect x="262.5" y="25" width="109.375" height="40" class="box-line" />
  <text x="266.5" y="15" text-anchor="start" class="bit-idx">19</text>
  <text x="367.875" y="15" text-anchor="end" class="bit-idx">15</text>
  <text x="317.1875" y="50" class="content-var">base</text>
  <rect x="262.5" y="65" width="109.375" height="24" class="box-type" />
  <text x="317.1875" y="81" class="field-type">gpr</text>
  <rect x="0" y="25" width="262.5" height="40" class="box-line" />
  <text x="4" y="15" text-anchor="start" class="bit-idx">31</text>
  <text x="258.5" y="15" text-anchor="end" class="bit-idx">20</text>
  <text x="131.25" y="50" class="content-var">offset</text>
  <rect x="0" y="65" width="262.5" height="24" class="box-type" />
  <text x="131.25" y="81" class="field-type">s12_imd</text>
</svg>